<svg width="39" height="39" viewBox="0 0 39 39" fill="none" xmlns="http://www.w3.org/2000/svg">
<circle cx="19.5" cy="19.5" r="19.5" fill="#3BAE2B"/>
<path d="M25.772 17.9453L24.8934 16.9453C24.6507 16.6693 24.2307 16.6427 23.9534 16.884L21.3334 19.18V9.66667C21.3334 9.29867 21.0347 9 20.6667 9H19.3334C18.9654 9 18.6667 9.29867 18.6667 9.66667V19.18L16.0467 16.884C15.7707 16.6427 15.3507 16.6693 15.1067 16.9453L14.228 17.944C13.984 18.2213 14.012 18.644 14.2894 18.8867L19.5614 23.5013C19.8134 23.7213 20.188 23.7213 20.44 23.5013L25.7107 18.8867C25.988 18.644 26.016 18.2213 25.772 17.9453Z" fill="white"/>
<path d="M27.3333 25.1211H12.6667C12.2987 25.1211 12 25.4198 12 25.7878V27.1211C12 27.4891 12.2987 27.7878 12.6667 27.7878H27.3333C27.7013 27.7878 28 27.4891 28 27.1211V25.7878C28 25.4198 27.7013 25.1211 27.3333 25.1211Z" fill="white"/>
</svg>
