<svg width="200" height="26" viewBox="0 0 200 26" fill="none" xmlns="http://www.w3.org/2000/svg">
<path d="M14.007 7.03776L11.1066 9.95308L8.20633 7.03776C7.43468 6.26274 7.00146 5.21361 7.00146 4.11995C7.00146 3.02628 7.43468 1.97715 8.20633 1.20213C8.58611 0.81931 9.03793 0.515467 9.53571 0.308117C10.0335 0.100767 10.5674 -0.00598145 11.1066 -0.00598145C11.6459 -0.00598145 12.1798 0.100767 12.6776 0.308117C13.1754 0.515467 13.6272 0.81931 14.007 1.20213C14.7786 1.97715 15.2118 3.02628 15.2118 4.11995C15.2118 5.21361 14.7786 6.26274 14.007 7.03776Z" fill="#62BB46"/>
<path d="M8.1814 15.2336L11.0817 12.3182L13.982 15.2336C14.7597 16.0048 15.1993 17.0534 15.204 18.1487C15.2087 19.244 14.7781 20.2963 14.007 21.0742C13.6272 21.457 13.1754 21.7608 12.6776 21.9682C12.1799 22.1755 11.646 22.2823 11.1067 22.2823C10.5675 22.2823 10.0336 22.1755 9.53578 21.9682C9.03799 21.7608 8.58617 21.457 8.20639 21.0742C7.43505 20.3 7.00195 19.2517 7.00195 18.1589C7.00195 17.066 7.43505 16.0177 8.20639 15.2436" fill="#0C592E"/>
<path d="M15.1609 14.0734L12.2556 11.1581L15.1609 8.24278C15.5407 7.85997 15.9925 7.55612 16.4903 7.34877C16.9881 7.14142 17.522 7.03467 18.0612 7.03467C18.6005 7.03467 19.1344 7.14142 19.6322 7.34877C20.13 7.55612 20.5818 7.85997 20.9616 8.24278C21.7329 9.01695 22.166 10.0653 22.166 11.1581C22.166 12.2509 21.7329 13.2993 20.9616 14.0734C20.5825 14.4574 20.1309 14.7624 19.633 14.9705C19.1351 15.1786 18.6009 15.2857 18.0612 15.2857C17.5216 15.2857 16.9874 15.1786 16.4895 14.9705C15.9916 14.7624 15.54 14.4574 15.1609 14.0734Z" fill="#1B8F45"/>
<path d="M7.00507 8.21778L9.91039 11.1331L7.00507 14.0734C6.62597 14.4574 6.17438 14.7624 5.67651 14.9705C5.17863 15.1786 4.64438 15.2857 4.10476 15.2857C3.56513 15.2857 3.03088 15.1786 2.53301 14.9705C2.03513 14.7624 1.58354 14.4574 1.20444 14.0734C0.433098 13.2993 0 12.2509 0 11.1581C0 10.0653 0.433098 9.01695 1.20444 8.24278C1.58422 7.85997 2.03604 7.55612 2.53382 7.34877C3.03161 7.14142 3.56551 7.03467 4.10476 7.03467C4.644 7.03467 5.17791 7.14142 5.6757 7.34877C6.17348 7.55612 6.62529 7.85997 7.00507 8.24278" fill="#A1D078"/>
<path d="M157.52 10.2327H161.771V20.4638H165.271V10.2327H169.522V6.8623H157.52V10.2327ZM53.594 6.47726C49.3435 6.47726 46.4482 9.60759 46.4482 13.663C46.4482 17.7185 49.3185 20.8488 53.869 20.8488C56.4693 20.8488 58.4995 19.7837 59.7697 17.9335L56.9544 16.3033C56.5874 16.7472 56.1232 17.1008 55.5977 17.3366C55.0723 17.5725 54.4996 17.6843 53.924 17.6635C52.0788 17.6635 50.5887 16.8984 50.1036 15.1032H60.3147C60.4019 14.628 60.4471 14.1461 60.4497 13.663C60.4347 9.6626 57.5894 6.47726 53.579 6.47726H53.594ZM50.0486 12.3829C50.201 11.5706 50.6461 10.8425 51.2996 10.3365C51.953 9.83047 52.7694 9.5818 53.594 9.6376C54.3921 9.60859 55.1734 9.87128 55.7919 10.3765C56.4104 10.8818 56.8236 11.5951 56.9544 12.3829H50.0486ZM70.7709 6.47726C69.9332 6.4358 69.0978 6.59579 68.3348 6.94382C67.5717 7.29185 66.9032 7.81777 66.3854 8.47747V6.8723H62.885V25.9194H66.3854V18.8686C66.9032 19.5283 67.5717 20.0542 68.3348 20.4023C69.0978 20.7503 69.9332 20.9103 70.7709 20.8688C74.4013 20.8688 77.3816 17.7385 77.3816 13.683C77.3816 9.6276 74.3863 6.47726 70.7559 6.47726H70.7709ZM70.1208 17.4785C69.3594 17.4924 68.6111 17.2793 67.9712 16.8664C67.3314 16.4535 66.8289 15.8594 66.5278 15.1599C66.2268 14.4605 66.1407 13.6872 66.2807 12.9386C66.4207 12.1901 66.7804 11.5001 67.3139 10.9567C67.8474 10.4133 68.5306 10.041 69.2764 9.88725C70.0222 9.73349 70.797 9.80525 71.5019 10.0934C72.2068 10.3815 72.81 10.8729 73.2346 11.5051C73.6593 12.1373 73.8861 12.8815 73.8862 13.643C73.9167 14.1509 73.8403 14.6595 73.6621 15.136C73.484 15.6126 73.2079 16.0465 72.8517 16.4097C72.4954 16.773 72.0671 17.0576 71.5941 17.2451C71.1212 17.4326 70.6142 17.5189 70.1058 17.4985L70.1208 17.4785ZM86.2976 6.47726C82.0421 6.47726 79.1468 9.60759 79.1468 13.663C79.1468 17.7185 82.0171 20.8488 86.5676 20.8488C89.1679 20.8488 91.1981 19.7837 92.4732 17.9335L89.6529 16.3033C89.2862 16.7475 88.8221 17.1013 88.2965 17.3372C87.771 17.573 87.1982 17.6847 86.6226 17.6635C84.7824 17.6635 83.2922 16.8984 82.8022 15.1032H93.0133C93.1004 14.628 93.1456 14.1461 93.1483 13.663C93.1333 9.6626 90.288 6.47726 86.2826 6.47726H86.2976ZM82.7472 12.3829C82.9017 11.5707 83.348 10.8431 84.0021 10.3374C84.6561 9.83165 85.4726 9.58274 86.2976 9.6376C87.0951 9.60875 87.8757 9.87161 88.4934 10.377C89.111 10.8823 89.5233 11.5955 89.6529 12.3829H82.7472ZM118.696 6.47726C117.858 6.43498 117.021 6.59458 116.257 6.94265C115.493 7.29071 114.824 7.81706 114.306 8.47747V6.8723H110.805V25.9194H114.306V18.8686C114.824 19.529 115.493 20.0554 116.257 20.4034C117.021 20.7515 117.858 20.9111 118.696 20.8688C122.321 20.8688 125.302 17.7385 125.302 13.683C125.302 9.6276 122.306 6.47726 118.681 6.47726H118.696ZM118.046 17.4785C117.285 17.4924 116.536 17.2793 115.896 16.8664C115.257 16.4535 114.754 15.8594 114.453 15.1599C114.152 14.4605 114.066 13.6872 114.206 12.9386C114.346 12.1901 114.706 11.5001 115.239 10.9567C115.773 10.4133 116.456 10.041 117.202 9.88725C117.947 9.73349 118.722 9.80525 119.427 10.0934C120.132 10.3815 120.735 10.8729 121.16 11.5051C121.584 12.1373 121.811 12.8815 121.811 13.643C121.841 14.152 121.764 14.6616 121.585 15.1389C121.405 15.6161 121.128 16.0505 120.77 16.4138C120.412 16.7771 119.982 17.0614 119.508 17.2482C119.034 17.4351 118.525 17.5203 118.016 17.4985L118.046 17.4785ZM131.482 5.39714C131.722 5.39714 131.959 5.34986 132.179 5.25801C132.4 5.16617 132.601 5.03157 132.77 4.86195C132.938 4.69233 133.072 4.49104 133.162 4.26966C133.253 4.04827 133.299 3.81116 133.298 3.57194C133.3 3.08646 133.111 2.61959 132.771 2.27304C132.431 1.92649 131.968 1.72833 131.482 1.72174C130.995 1.72826 130.529 1.9256 130.185 2.27146C129.841 2.61732 129.646 3.08416 129.642 3.57194C129.641 4.05827 129.832 4.52535 130.174 4.87111C130.516 5.21687 130.981 5.41318 131.467 5.41714L131.482 5.39714ZM136.628 5.39714C136.867 5.39714 137.104 5.34986 137.325 5.25801C137.546 5.16617 137.746 5.03157 137.915 4.86195C138.084 4.69233 138.217 4.49104 138.308 4.26966C138.399 4.04827 138.445 3.81116 138.443 3.57194C138.446 3.08646 138.257 2.61959 137.917 2.27304C137.577 1.92649 137.113 1.72833 136.628 1.72174C136.14 1.72826 135.674 1.9256 135.33 2.27146C134.987 2.61732 134.792 3.08416 134.788 3.57194C134.786 4.05827 134.978 4.52535 135.32 4.87111C135.662 5.21687 136.127 5.41318 136.613 5.41714L136.628 5.39714ZM134.218 6.45726C129.967 6.45726 127.072 9.58759 127.072 13.643C127.072 17.6985 129.942 20.8288 134.493 20.8288C137.088 20.8288 139.123 19.7637 140.393 17.9135L137.578 16.2833C137.21 16.7276 136.745 17.0814 136.219 17.3172C135.693 17.5531 135.119 17.6647 134.543 17.6435C132.703 17.6435 131.212 16.8784 130.727 15.0832H140.938C141.024 14.6079 141.067 14.126 141.068 13.643C141.053 9.6626 138.213 6.47726 134.203 6.47726L134.218 6.45726ZM130.672 12.3629C130.825 11.5502 131.27 10.8215 131.923 10.3147C132.576 9.80786 133.393 9.55808 134.218 9.6126C135.016 9.58484 135.798 9.84863 136.416 10.3547C137.034 10.8608 137.447 11.5746 137.578 12.3629H130.672ZM149.824 17.3634C148.839 17.3634 147.894 16.972 147.197 16.2752C146.5 15.5785 146.109 14.6334 146.109 13.648C146.109 12.6626 146.5 11.7176 147.197 11.0208C147.894 10.3241 148.839 9.93263 149.824 9.93263C150.46 9.91306 151.087 10.0742 151.634 10.3973C152.181 10.7204 152.625 11.1922 152.915 11.7578L155.915 9.98764C155.315 8.90998 154.434 8.01526 153.366 7.39882C152.298 6.78238 151.083 6.46733 149.849 6.48726C147.944 6.48726 146.116 7.24433 144.768 8.59193C143.421 9.93952 142.664 11.7673 142.664 13.673C142.664 15.5788 143.421 17.4066 144.768 18.7542C146.116 20.1018 147.944 20.8588 149.849 20.8588C151.093 20.8726 152.317 20.551 153.393 19.928C154.469 19.305 155.358 18.4036 155.965 17.3184L152.925 15.5732C152.631 16.1379 152.181 16.6065 151.629 16.9237C151.077 17.2409 150.445 17.3935 149.809 17.3634H149.824ZM177.827 6.47726C176.406 6.47528 175.016 6.89503 173.833 7.68341C172.65 8.47179 171.727 9.59337 171.182 10.9062C170.636 12.2191 170.492 13.6642 170.769 15.0588C171.045 16.4533 171.728 17.7347 172.733 18.7406C173.737 19.7466 175.018 20.4319 176.412 20.71C177.806 20.9881 179.251 20.8464 180.565 20.3028C181.879 19.7592 183.001 18.8382 183.792 17.6563C184.582 16.4744 185.003 15.0847 185.003 13.663C185.016 12.7141 184.838 11.7723 184.48 10.8934C184.123 10.0145 183.592 9.21629 182.92 8.54619C182.248 7.87609 181.449 7.34769 180.569 6.9923C179.689 6.63692 178.746 6.46178 177.797 6.47726H177.827ZM177.827 17.4184C177.082 17.4333 176.348 17.2258 175.721 16.8223C175.094 16.4188 174.601 15.8377 174.305 15.1529C174.009 14.4681 173.924 13.7108 174.06 12.9775C174.197 12.2441 174.548 11.568 175.07 11.0352C175.592 10.5025 176.261 10.1373 176.992 9.98623C177.722 9.83514 178.481 9.90499 179.172 10.1869C179.862 10.4688 180.453 10.95 180.869 11.5691C181.285 12.1882 181.508 12.9171 181.508 13.663C181.529 14.1579 181.447 14.6518 181.269 15.1139C181.09 15.576 180.819 15.9963 180.47 16.3487C180.122 16.701 179.705 16.9779 179.245 17.1619C178.785 17.346 178.293 17.4333 177.797 17.4184H177.827ZM108.345 6.8623H104.174L100.264 12.3629H99.0689V6.8623H95.5686V20.4638H99.0689V15.1032H100.514L104.425 20.4638H108.515L103.324 13.573L108.345 6.8623ZM194.794 13.573L199.795 6.8523H195.624L191.719 12.3529H190.524V6.8523H187.023V20.4538H190.524V15.1032H192.024L195.934 20.4638H200L194.794 13.573ZM29.9714 20.4638H33.7118V5.25212H40.3976V20.4638H44.138V1.74174H29.9714V20.4638Z" fill="#0C592E"/>
</svg>
